<svg t="1756739592650" class="icon" viewBox="0 0 1024 1024" version="1.1" xmlns="http://www.w3.org/2000/svg" p-id="1515" width="200" height="200"><path d="M846.116571 245.101714c-172.8-4.717714-284.525714-86.125714-317.696-113.737143a16.018286 16.018286 0 0 0-20.589714 0c-33.097143 27.721143-144.896 109.019429-317.696 113.737143a15.981714 15.981714 0 0 0-15.798857 15.798857v324.388572c0 145.188571 217.892571 316.306286 343.771429 316.306286 122.404571 0 343.808-171.117714 343.808-316.306286v-324.388572a16.091429 16.091429 0 0 0-15.798858-15.798857z m-472.100571 138.093715l81.298286-11.812572a16.201143 16.201143 0 0 0 12.105143-8.777143l36.388571-73.728a16.091429 16.091429 0 0 1 28.818286 0l36.388571 73.728a16.274286 16.274286 0 0 0 12.105143 8.777143l81.298286 11.812572a16.091429 16.091429 0 0 1 8.886857 27.428571l-58.770286 57.270857a15.981714 15.981714 0 0 0-4.608 14.189714l13.897143 81.005715a16.018286 16.018286 0 0 1-23.296 16.896l-72.704-38.180572a15.725714 15.725714 0 0 0-14.921143 0l-72.886857 38.180572a16.054857 16.054857 0 0 1-23.296-16.896l13.897143-81.005715a15.981714 15.981714 0 0 0-4.608-14.189714l-58.770286-57.307428a16.054857 16.054857 0 0 1 8.777143-27.428572z m304.274286 337.188571c0 8.704-6.948571 15.725714-15.652572 15.725714h-289.024a15.652571 15.652571 0 0 1-15.725714-15.725714V681.325714c0-8.704 7.021714-15.725714 15.725714-15.725714h289.024c8.667429 0 15.689143 7.021714 15.689143 15.725714v39.131429z" fill="#1afa29" p-id="1516"></path></svg>